<svg xmlns="http://www.w3.org/2000/svg" width="223" height="50" viewBox="0 0 223 50">
  <g id="Github_button" data-name="Github button" transform="translate(-714 -2088)">
    <g id="Retângulo_22" data-name="Retângulo 22" transform="translate(714 2088)" fill="none" stroke="#ccd4de" stroke-width="1">
      <rect width="223" height="50" rx="5" stroke="none"/>
      <rect x="0.5" y="0.5" width="222" height="49" rx="4.5" fill="none"/>
    </g>
    <g id="Conteúdo" transform="translate(621.613 -86)">
      <path id="Icon_awesome-github" data-name="Icon awesome-github" d="M11.44,27.414c0,.138-.159.248-.359.248-.228.021-.386-.09-.386-.248,0-.138.159-.248.359-.248C11.26,27.145,11.44,27.255,11.44,27.414ZM9.3,27.1c-.048.138.09.3.3.338a.323.323,0,0,0,.428-.138c.041-.138-.09-.3-.3-.359A.354.354,0,0,0,9.3,27.1Zm3.048-.117c-.2.048-.338.179-.317.338.021.138.2.228.407.179s.338-.179.317-.317S12.543,26.966,12.343,26.986ZM16.88.562A16.535,16.535,0,0,0,0,17.388,17.288,17.288,0,0,0,11.688,33.882c.883.159,1.193-.386,1.193-.834,0-.428-.021-2.786-.021-4.234,0,0-4.827,1.034-5.841-2.055,0,0-.786-2.007-1.917-2.524,0,0-1.579-1.083.11-1.062a3.64,3.64,0,0,1,2.662,1.779A3.645,3.645,0,0,0,12.9,26.393,3.833,3.833,0,0,1,14,24.07c-3.855-.428-7.744-.986-7.744-7.62a5.226,5.226,0,0,1,1.627-4.061,6.515,6.515,0,0,1,.179-4.682c1.441-.448,4.758,1.862,4.758,1.862a16.29,16.29,0,0,1,8.661,0S24.8,7.251,26.245,7.706a6.512,6.512,0,0,1,.179,4.682A5.36,5.36,0,0,1,28.2,16.45c0,6.654-4.061,7.185-7.916,7.62a4.078,4.078,0,0,1,1.172,3.2c0,2.324-.021,5.2-.021,5.765,0,.448.317.993,1.193.834A17.129,17.129,0,0,0,34.2,17.388C34.2,7.824,26.445.562,16.88.562ZM6.7,24.345c-.09.069-.069.228.048.359.11.11.269.159.359.069.09-.069.069-.228-.048-.359C6.951,24.3,6.792,24.256,6.7,24.345Zm-.745-.559c-.048.09.021.2.159.269a.205.205,0,0,0,.3-.048c.048-.09-.021-.2-.159-.269C6.116,23.7,6.006,23.718,5.958,23.787Zm2.234,2.455c-.11.09-.069.3.09.428.159.159.359.179.448.069.09-.09.048-.3-.09-.428C8.488,26.152,8.282,26.131,8.192,26.242Zm-.786-1.014c-.11.069-.11.248,0,.407s.3.228.386.159a.315.315,0,0,0,0-.428C7.7,25.207,7.516,25.138,7.406,25.228Z" transform="translate(113.387 2181.438)" fill="#dbe4ee"/>
      <text id="CHECK_ON_GITHUB" data-name="CHECK ON GITHUB" transform="translate(161 2190)" fill="#dbe4ee" font-size="15" font-family="Roboto-Medium, Roboto" font-weight="500"><tspan x="0" y="16">CHECK ON GITHUB</tspan></text>
    </g>
  </g>
</svg>
